<?xml version="1.0" encoding="utf-8" standalone="no"?>
<!DOCTYPE svg PUBLIC "-//W3C//DTD SVG 1.1//EN"
  "http://www.w3.org/Graphics/SVG/1.1/DTD/svg11.dtd">
<svg xmlns:xlink="http://www.w3.org/1999/xlink" width="432pt" height="288pt" viewBox="0 0 432 288" xmlns="http://www.w3.org/2000/svg" version="1.1">
 <metadata>
  <rdf:RDF xmlns:dc="http://purl.org/dc/elements/1.1/" xmlns:cc="http://creativecommons.org/ns#" xmlns:rdf="http://www.w3.org/1999/02/22-rdf-syntax-ns#">
   <cc:Work>
    <dc:type rdf:resource="http://purl.org/dc/dcmitype/StillImage"/>
    <dc:date>2024-02-14T17:47:14.276542</dc:date>
    <dc:format>image/svg+xml</dc:format>
    <dc:creator>
     <cc:Agent>
      <dc:title>Matplotlib v3.6.2, https://matplotlib.org/</dc:title>
     </cc:Agent>
    </dc:creator>
   </cc:Work>
  </rdf:RDF>
 </metadata>
 <defs>
  <style type="text/css">*{stroke-linejoin: round; stroke-linecap: butt}</style>
 </defs>
 <g id="figure_1">
  <g id="patch_1">
   <path d="M 0 288 
L 432 288 
L 432 0 
L 0 0 
z
" style="fill: #ffffff"/>
  </g>
  <g id="axes_1">
   <g id="patch_2">
    <path d="M 47.52 253.44 
L 423.36 253.44 
L 423.36 20.16 
L 47.52 20.16 
z
" style="fill: #eaeaf2"/>
   </g>
   <g id="matplotlib.axis_1">
    <g id="xtick_1">
     <g id="line2d_1">
      <path d="M 94.84697 253.44 
L 94.84697 20.16 
" clip-path="url(#p0c8f1538b2)" style="fill: none; stroke: #ffffff; stroke-width: 0.8; stroke-linecap: round"/>
     </g>
     <g id="text_1">
      <!-- 0.4 -->
      <g style="fill: #333333" transform="translate(86.50697 269.029375) scale(0.12 -0.12)">
       <defs>
        <path id="Arial-BoldMT-30" d="M 1756 4600 
Q 2422 4600 2797 4125 
Q 3244 3563 3244 2259 
Q 3244 959 2794 391 
Q 2422 -78 1756 -78 
Q 1088 -78 678 436 
Q 269 950 269 2269 
Q 269 3563 719 4131 
Q 1091 4600 1756 4600 
z
M 1756 3872 
Q 1597 3872 1472 3770 
Q 1347 3669 1278 3406 
Q 1188 3066 1188 2259 
Q 1188 1453 1269 1151 
Q 1350 850 1473 750 
Q 1597 650 1756 650 
Q 1916 650 2041 751 
Q 2166 853 2234 1116 
Q 2325 1453 2325 2259 
Q 2325 3066 2244 3367 
Q 2163 3669 2039 3770 
Q 1916 3872 1756 3872 
z
" transform="scale(0.015625)"/>
        <path id="Arial-BoldMT-2e" d="M 459 0 
L 459 878 
L 1338 878 
L 1338 0 
L 459 0 
z
" transform="scale(0.015625)"/>
        <path id="Arial-BoldMT-34" d="M 1994 0 
L 1994 922 
L 119 922 
L 119 1691 
L 2106 4600 
L 2844 4600 
L 2844 1694 
L 3413 1694 
L 3413 922 
L 2844 922 
L 2844 0 
L 1994 0 
z
M 1994 1694 
L 1994 3259 
L 941 1694 
L 1994 1694 
z
" transform="scale(0.015625)"/>
       </defs>
       <use xlink:href="#Arial-BoldMT-30"/>
       <use xlink:href="#Arial-BoldMT-2e" x="55.615234"/>
       <use xlink:href="#Arial-BoldMT-34" x="83.398438"/>
      </g>
     </g>
    </g>
    <g id="xtick_2">
     <g id="line2d_2">
      <path d="M 157.44357 253.44 
L 157.44357 20.16 
" clip-path="url(#p0c8f1538b2)" style="fill: none; stroke: #ffffff; stroke-width: 0.8; stroke-linecap: round"/>
     </g>
     <g id="text_2">
      <!-- 0.5 -->
      <g style="fill: #333333" transform="translate(149.10357 269.029375) scale(0.12 -0.12)">
       <defs>
        <path id="Arial-BoldMT-35" d="M 284 1178 
L 1159 1269 
Q 1197 972 1381 798 
Q 1566 625 1806 625 
Q 2081 625 2272 848 
Q 2463 1072 2463 1522 
Q 2463 1944 2273 2155 
Q 2084 2366 1781 2366 
Q 1403 2366 1103 2031 
L 391 2134 
L 841 4519 
L 3163 4519 
L 3163 3697 
L 1506 3697 
L 1369 2919 
Q 1663 3066 1969 3066 
Q 2553 3066 2959 2641 
Q 3366 2216 3366 1538 
Q 3366 972 3038 528 
Q 2591 -78 1797 -78 
Q 1163 -78 763 262 
Q 363 603 284 1178 
z
" transform="scale(0.015625)"/>
       </defs>
       <use xlink:href="#Arial-BoldMT-30"/>
       <use xlink:href="#Arial-BoldMT-2e" x="55.615234"/>
       <use xlink:href="#Arial-BoldMT-35" x="83.398438"/>
      </g>
     </g>
    </g>
    <g id="xtick_3">
     <g id="line2d_3">
      <path d="M 220.040169 253.44 
L 220.040169 20.16 
" clip-path="url(#p0c8f1538b2)" style="fill: none; stroke: #ffffff; stroke-width: 0.8; stroke-linecap: round"/>
     </g>
     <g id="text_3">
      <!-- 0.6 -->
      <g style="fill: #333333" transform="translate(211.700169 269.029375) scale(0.12 -0.12)">
       <defs>
        <path id="Arial-BoldMT-36" d="M 3247 3459 
L 2397 3366 
Q 2366 3628 2234 3753 
Q 2103 3878 1894 3878 
Q 1616 3878 1423 3628 
Q 1231 3378 1181 2588 
Q 1509 2975 1997 2975 
Q 2547 2975 2939 2556 
Q 3331 2138 3331 1475 
Q 3331 772 2918 347 
Q 2506 -78 1859 -78 
Q 1166 -78 719 461 
Q 272 1000 272 2228 
Q 272 3488 737 4044 
Q 1203 4600 1947 4600 
Q 2469 4600 2811 4308 
Q 3153 4016 3247 3459 
z
M 1256 1544 
Q 1256 1116 1453 883 
Q 1650 650 1903 650 
Q 2147 650 2309 840 
Q 2472 1031 2472 1466 
Q 2472 1913 2297 2120 
Q 2122 2328 1859 2328 
Q 1606 2328 1431 2129 
Q 1256 1931 1256 1544 
z
" transform="scale(0.015625)"/>
       </defs>
       <use xlink:href="#Arial-BoldMT-30"/>
       <use xlink:href="#Arial-BoldMT-2e" x="55.615234"/>
       <use xlink:href="#Arial-BoldMT-36" x="83.398438"/>
      </g>
     </g>
    </g>
    <g id="xtick_4">
     <g id="line2d_4">
      <path d="M 282.636768 253.44 
L 282.636768 20.16 
" clip-path="url(#p0c8f1538b2)" style="fill: none; stroke: #ffffff; stroke-width: 0.8; stroke-linecap: round"/>
     </g>
     <g id="text_4">
      <!-- 0.7 -->
      <g style="fill: #333333" transform="translate(274.296768 269.029375) scale(0.12 -0.12)">
       <defs>
        <path id="Arial-BoldMT-37" d="M 272 3703 
L 272 4519 
L 3275 4519 
L 3275 3881 
Q 2903 3516 2518 2831 
Q 2134 2147 1932 1376 
Q 1731 606 1734 0 
L 888 0 
Q 909 950 1279 1937 
Q 1650 2925 2269 3703 
L 272 3703 
z
" transform="scale(0.015625)"/>
       </defs>
       <use xlink:href="#Arial-BoldMT-30"/>
       <use xlink:href="#Arial-BoldMT-2e" x="55.615234"/>
       <use xlink:href="#Arial-BoldMT-37" x="83.398438"/>
      </g>
     </g>
    </g>
    <g id="xtick_5">
     <g id="line2d_5">
      <path d="M 345.233368 253.44 
L 345.233368 20.16 
" clip-path="url(#p0c8f1538b2)" style="fill: none; stroke: #ffffff; stroke-width: 0.8; stroke-linecap: round"/>
     </g>
     <g id="text_5">
      <!-- 0.8 -->
      <g style="fill: #333333" transform="translate(336.893368 269.029375) scale(0.12 -0.12)">
       <defs>
        <path id="Arial-BoldMT-38" d="M 1025 2472 
Q 684 2616 529 2867 
Q 375 3119 375 3419 
Q 375 3931 733 4265 
Q 1091 4600 1750 4600 
Q 2403 4600 2764 4265 
Q 3125 3931 3125 3419 
Q 3125 3100 2959 2851 
Q 2794 2603 2494 2472 
Q 2875 2319 3073 2025 
Q 3272 1731 3272 1347 
Q 3272 713 2867 316 
Q 2463 -81 1791 -81 
Q 1166 -81 750 247 
Q 259 634 259 1309 
Q 259 1681 443 1992 
Q 628 2303 1025 2472 
z
M 1206 3356 
Q 1206 3094 1354 2947 
Q 1503 2800 1750 2800 
Q 2000 2800 2150 2948 
Q 2300 3097 2300 3359 
Q 2300 3606 2151 3754 
Q 2003 3903 1759 3903 
Q 1506 3903 1356 3753 
Q 1206 3603 1206 3356 
z
M 1125 1394 
Q 1125 1031 1311 828 
Q 1497 625 1775 625 
Q 2047 625 2225 820 
Q 2403 1016 2403 1384 
Q 2403 1706 2222 1901 
Q 2041 2097 1763 2097 
Q 1441 2097 1283 1875 
Q 1125 1653 1125 1394 
z
" transform="scale(0.015625)"/>
       </defs>
       <use xlink:href="#Arial-BoldMT-30"/>
       <use xlink:href="#Arial-BoldMT-2e" x="55.615234"/>
       <use xlink:href="#Arial-BoldMT-38" x="83.398438"/>
      </g>
     </g>
    </g>
    <g id="xtick_6">
     <g id="line2d_6">
      <path d="M 407.829967 253.44 
L 407.829967 20.16 
" clip-path="url(#p0c8f1538b2)" style="fill: none; stroke: #ffffff; stroke-width: 0.8; stroke-linecap: round"/>
     </g>
     <g id="text_6">
      <!-- 0.9 -->
      <g style="fill: #333333" transform="translate(399.489967 269.029375) scale(0.12 -0.12)">
       <defs>
        <path id="Arial-BoldMT-39" d="M 291 1059 
L 1141 1153 
Q 1172 894 1303 769 
Q 1434 644 1650 644 
Q 1922 644 2112 894 
Q 2303 1144 2356 1931 
Q 2025 1547 1528 1547 
Q 988 1547 595 1964 
Q 203 2381 203 3050 
Q 203 3747 617 4173 
Q 1031 4600 1672 4600 
Q 2369 4600 2816 4061 
Q 3263 3522 3263 2288 
Q 3263 1031 2797 475 
Q 2331 -81 1584 -81 
Q 1047 -81 715 205 
Q 384 491 291 1059 
z
M 2278 2978 
Q 2278 3403 2083 3637 
Q 1888 3872 1631 3872 
Q 1388 3872 1227 3680 
Q 1066 3488 1066 3050 
Q 1066 2606 1241 2398 
Q 1416 2191 1678 2191 
Q 1931 2191 2104 2391 
Q 2278 2591 2278 2978 
z
" transform="scale(0.015625)"/>
       </defs>
       <use xlink:href="#Arial-BoldMT-30"/>
       <use xlink:href="#Arial-BoldMT-2e" x="55.615234"/>
       <use xlink:href="#Arial-BoldMT-39" x="83.398438"/>
      </g>
     </g>
    </g>
    <g id="text_7">
     <!-- SSIM Score -->
     <g style="fill: #333333" transform="translate(196.926875 285.418437) scale(0.14 -0.14)">
      <defs>
       <path id="Arial-BoldMT-53" d="M 231 1491 
L 1131 1578 
Q 1213 1125 1461 912 
Q 1709 700 2131 700 
Q 2578 700 2804 889 
Q 3031 1078 3031 1331 
Q 3031 1494 2936 1608 
Q 2841 1722 2603 1806 
Q 2441 1863 1863 2006 
Q 1119 2191 819 2459 
Q 397 2838 397 3381 
Q 397 3731 595 4036 
Q 794 4341 1167 4500 
Q 1541 4659 2069 4659 
Q 2931 4659 3367 4281 
Q 3803 3903 3825 3272 
L 2900 3231 
Q 2841 3584 2645 3739 
Q 2450 3894 2059 3894 
Q 1656 3894 1428 3728 
Q 1281 3622 1281 3444 
Q 1281 3281 1419 3166 
Q 1594 3019 2269 2859 
Q 2944 2700 3267 2529 
Q 3591 2359 3773 2064 
Q 3956 1769 3956 1334 
Q 3956 941 3737 597 
Q 3519 253 3119 86 
Q 2719 -81 2122 -81 
Q 1253 -81 787 320 
Q 322 722 231 1491 
z
" transform="scale(0.015625)"/>
       <path id="Arial-BoldMT-49" d="M 438 0 
L 438 4581 
L 1363 4581 
L 1363 0 
L 438 0 
z
" transform="scale(0.015625)"/>
       <path id="Arial-BoldMT-4d" d="M 453 0 
L 453 4581 
L 1838 4581 
L 2669 1456 
L 3491 4581 
L 4878 4581 
L 4878 0 
L 4019 0 
L 4019 3606 
L 3109 0 
L 2219 0 
L 1313 3606 
L 1313 0 
L 453 0 
z
" transform="scale(0.015625)"/>
       <path id="Arial-BoldMT-20" transform="scale(0.015625)"/>
       <path id="Arial-BoldMT-63" d="M 3353 2338 
L 2488 2181 
Q 2444 2441 2289 2572 
Q 2134 2703 1888 2703 
Q 1559 2703 1364 2476 
Q 1169 2250 1169 1719 
Q 1169 1128 1367 884 
Q 1566 641 1900 641 
Q 2150 641 2309 783 
Q 2469 925 2534 1272 
L 3397 1125 
Q 3263 531 2881 228 
Q 2500 -75 1859 -75 
Q 1131 -75 698 384 
Q 266 844 266 1656 
Q 266 2478 700 2936 
Q 1134 3394 1875 3394 
Q 2481 3394 2839 3133 
Q 3197 2872 3353 2338 
z
" transform="scale(0.015625)"/>
       <path id="Arial-BoldMT-6f" d="M 256 1706 
Q 256 2144 472 2553 
Q 688 2963 1083 3178 
Q 1478 3394 1966 3394 
Q 2719 3394 3200 2905 
Q 3681 2416 3681 1669 
Q 3681 916 3195 420 
Q 2709 -75 1972 -75 
Q 1516 -75 1102 131 
Q 688 338 472 736 
Q 256 1134 256 1706 
z
M 1156 1659 
Q 1156 1166 1390 903 
Q 1625 641 1969 641 
Q 2313 641 2545 903 
Q 2778 1166 2778 1666 
Q 2778 2153 2545 2415 
Q 2313 2678 1969 2678 
Q 1625 2678 1390 2415 
Q 1156 2153 1156 1659 
z
" transform="scale(0.015625)"/>
       <path id="Arial-BoldMT-72" d="M 1300 0 
L 422 0 
L 422 3319 
L 1238 3319 
L 1238 2847 
Q 1447 3181 1614 3287 
Q 1781 3394 1994 3394 
Q 2294 3394 2572 3228 
L 2300 2463 
Q 2078 2606 1888 2606 
Q 1703 2606 1575 2504 
Q 1447 2403 1373 2137 
Q 1300 1872 1300 1025 
L 1300 0 
z
" transform="scale(0.015625)"/>
       <path id="Arial-BoldMT-65" d="M 2381 1056 
L 3256 909 
Q 3088 428 2723 176 
Q 2359 -75 1813 -75 
Q 947 -75 531 491 
Q 203 944 203 1634 
Q 203 2459 634 2926 
Q 1066 3394 1725 3394 
Q 2466 3394 2894 2905 
Q 3322 2416 3303 1406 
L 1103 1406 
Q 1113 1016 1316 798 
Q 1519 581 1822 581 
Q 2028 581 2168 693 
Q 2309 806 2381 1056 
z
M 2431 1944 
Q 2422 2325 2234 2523 
Q 2047 2722 1778 2722 
Q 1491 2722 1303 2513 
Q 1116 2303 1119 1944 
L 2431 1944 
z
" transform="scale(0.015625)"/>
      </defs>
      <use xlink:href="#Arial-BoldMT-53"/>
      <use xlink:href="#Arial-BoldMT-53" x="66.699219"/>
      <use xlink:href="#Arial-BoldMT-49" x="133.398438"/>
      <use xlink:href="#Arial-BoldMT-4d" x="161.181641"/>
      <use xlink:href="#Arial-BoldMT-20" x="244.482422"/>
      <use xlink:href="#Arial-BoldMT-53" x="272.265625"/>
      <use xlink:href="#Arial-BoldMT-63" x="338.964844"/>
      <use xlink:href="#Arial-BoldMT-6f" x="394.580078"/>
      <use xlink:href="#Arial-BoldMT-72" x="455.664062"/>
      <use xlink:href="#Arial-BoldMT-65" x="494.580078"/>
     </g>
    </g>
   </g>
   <g id="matplotlib.axis_2">
    <g id="ytick_1">
     <g id="line2d_7">
      <path d="M 47.52 253.44 
L 423.36 253.44 
" clip-path="url(#p0c8f1538b2)" style="fill: none; stroke: #ffffff; stroke-width: 0.8; stroke-linecap: round"/>
     </g>
     <g id="text_8">
      <!-- 0 -->
      <g style="fill: #333333" transform="translate(33.846875 257.734688) scale(0.12 -0.12)">
       <use xlink:href="#Arial-BoldMT-30"/>
      </g>
     </g>
    </g>
    <g id="ytick_2">
     <g id="line2d_8">
      <path d="M 47.52 218.994817 
L 423.36 218.994817 
" clip-path="url(#p0c8f1538b2)" style="fill: none; stroke: #ffffff; stroke-width: 0.8; stroke-linecap: round"/>
     </g>
     <g id="text_9">
      <!-- 20 -->
      <g style="fill: #333333" transform="translate(27.17375 223.289505) scale(0.12 -0.12)">
       <defs>
        <path id="Arial-BoldMT-32" d="M 3238 816 
L 3238 0 
L 159 0 
Q 209 463 459 877 
Q 709 1291 1447 1975 
Q 2041 2528 2175 2725 
Q 2356 2997 2356 3263 
Q 2356 3556 2198 3714 
Q 2041 3872 1763 3872 
Q 1488 3872 1325 3706 
Q 1163 3541 1138 3156 
L 263 3244 
Q 341 3969 753 4284 
Q 1166 4600 1784 4600 
Q 2463 4600 2850 4234 
Q 3238 3869 3238 3325 
Q 3238 3016 3127 2736 
Q 3016 2456 2775 2150 
Q 2616 1947 2200 1565 
Q 1784 1184 1673 1059 
Q 1563 934 1494 816 
L 3238 816 
z
" transform="scale(0.015625)"/>
       </defs>
       <use xlink:href="#Arial-BoldMT-32"/>
       <use xlink:href="#Arial-BoldMT-30" x="55.615234"/>
      </g>
     </g>
    </g>
    <g id="ytick_3">
     <g id="line2d_9">
      <path d="M 47.52 184.549635 
L 423.36 184.549635 
" clip-path="url(#p0c8f1538b2)" style="fill: none; stroke: #ffffff; stroke-width: 0.8; stroke-linecap: round"/>
     </g>
     <g id="text_10">
      <!-- 40 -->
      <g style="fill: #333333" transform="translate(27.17375 188.844322) scale(0.12 -0.12)">
       <use xlink:href="#Arial-BoldMT-34"/>
       <use xlink:href="#Arial-BoldMT-30" x="55.615234"/>
      </g>
     </g>
    </g>
    <g id="ytick_4">
     <g id="line2d_10">
      <path d="M 47.52 150.104452 
L 423.36 150.104452 
" clip-path="url(#p0c8f1538b2)" style="fill: none; stroke: #ffffff; stroke-width: 0.8; stroke-linecap: round"/>
     </g>
     <g id="text_11">
      <!-- 60 -->
      <g style="fill: #333333" transform="translate(27.17375 154.399139) scale(0.12 -0.12)">
       <use xlink:href="#Arial-BoldMT-36"/>
       <use xlink:href="#Arial-BoldMT-30" x="55.615234"/>
      </g>
     </g>
    </g>
    <g id="ytick_5">
     <g id="line2d_11">
      <path d="M 47.52 115.659269 
L 423.36 115.659269 
" clip-path="url(#p0c8f1538b2)" style="fill: none; stroke: #ffffff; stroke-width: 0.8; stroke-linecap: round"/>
     </g>
     <g id="text_12">
      <!-- 80 -->
      <g style="fill: #333333" transform="translate(27.17375 119.953957) scale(0.12 -0.12)">
       <use xlink:href="#Arial-BoldMT-38"/>
       <use xlink:href="#Arial-BoldMT-30" x="55.615234"/>
      </g>
     </g>
    </g>
    <g id="ytick_6">
     <g id="line2d_12">
      <path d="M 47.52 81.214086 
L 423.36 81.214086 
" clip-path="url(#p0c8f1538b2)" style="fill: none; stroke: #ffffff; stroke-width: 0.8; stroke-linecap: round"/>
     </g>
     <g id="text_13">
      <!-- 100 -->
      <g style="fill: #333333" transform="translate(20.500625 85.508774) scale(0.12 -0.12)">
       <defs>
        <path id="Arial-BoldMT-31" d="M 2519 0 
L 1641 0 
L 1641 3309 
Q 1159 2859 506 2644 
L 506 3441 
Q 850 3553 1253 3867 
Q 1656 4181 1806 4600 
L 2519 4600 
L 2519 0 
z
" transform="scale(0.015625)"/>
       </defs>
       <use xlink:href="#Arial-BoldMT-31"/>
       <use xlink:href="#Arial-BoldMT-30" x="55.615234"/>
       <use xlink:href="#Arial-BoldMT-30" x="111.230469"/>
      </g>
     </g>
    </g>
    <g id="ytick_7">
     <g id="line2d_13">
      <path d="M 47.52 46.768904 
L 423.36 46.768904 
" clip-path="url(#p0c8f1538b2)" style="fill: none; stroke: #ffffff; stroke-width: 0.8; stroke-linecap: round"/>
     </g>
     <g id="text_14">
      <!-- 120 -->
      <g style="fill: #333333" transform="translate(20.500625 51.063591) scale(0.12 -0.12)">
       <use xlink:href="#Arial-BoldMT-31"/>
       <use xlink:href="#Arial-BoldMT-32" x="55.615234"/>
       <use xlink:href="#Arial-BoldMT-30" x="111.230469"/>
      </g>
     </g>
    </g>
    <g id="text_15">
     <!-- Frequency -->
     <g style="fill: #333333" transform="translate(13.554063 172.197031) rotate(-90) scale(0.14 -0.14)">
      <defs>
       <path id="Arial-BoldMT-46" d="M 472 0 
L 472 4581 
L 3613 4581 
L 3613 3806 
L 1397 3806 
L 1397 2722 
L 3309 2722 
L 3309 1947 
L 1397 1947 
L 1397 0 
L 472 0 
z
" transform="scale(0.015625)"/>
       <path id="Arial-BoldMT-71" d="M 2628 -1263 
L 2628 406 
Q 2456 184 2200 54 
Q 1944 -75 1647 -75 
Q 1081 -75 716 350 
Q 284 847 284 1697 
Q 284 2497 689 2945 
Q 1094 3394 1694 3394 
Q 2025 3394 2267 3253 
Q 2509 3113 2697 2828 
L 2697 3319 
L 3506 3319 
L 3506 -1263 
L 2628 -1263 
z
M 2656 1700 
Q 2656 2209 2448 2457 
Q 2241 2706 1928 2706 
Q 1609 2706 1395 2453 
Q 1181 2200 1181 1650 
Q 1181 1103 1387 861 
Q 1594 619 1897 619 
Q 2200 619 2428 891 
Q 2656 1163 2656 1700 
z
" transform="scale(0.015625)"/>
       <path id="Arial-BoldMT-75" d="M 2644 0 
L 2644 497 
Q 2463 231 2167 78 
Q 1872 -75 1544 -75 
Q 1209 -75 943 72 
Q 678 219 559 484 
Q 441 750 441 1219 
L 441 3319 
L 1319 3319 
L 1319 1794 
Q 1319 1094 1367 936 
Q 1416 778 1544 686 
Q 1672 594 1869 594 
Q 2094 594 2272 717 
Q 2450 841 2515 1023 
Q 2581 1206 2581 1919 
L 2581 3319 
L 3459 3319 
L 3459 0 
L 2644 0 
z
" transform="scale(0.015625)"/>
       <path id="Arial-BoldMT-6e" d="M 3478 0 
L 2600 0 
L 2600 1694 
Q 2600 2231 2544 2389 
Q 2488 2547 2361 2634 
Q 2234 2722 2056 2722 
Q 1828 2722 1647 2597 
Q 1466 2472 1398 2265 
Q 1331 2059 1331 1503 
L 1331 0 
L 453 0 
L 453 3319 
L 1269 3319 
L 1269 2831 
Q 1703 3394 2363 3394 
Q 2653 3394 2893 3289 
Q 3134 3184 3257 3021 
Q 3381 2859 3429 2653 
Q 3478 2447 3478 2063 
L 3478 0 
z
" transform="scale(0.015625)"/>
       <path id="Arial-BoldMT-79" d="M 44 3319 
L 978 3319 
L 1772 963 
L 2547 3319 
L 3456 3319 
L 2284 125 
L 2075 -453 
Q 1959 -744 1854 -897 
Q 1750 -1050 1614 -1145 
Q 1478 -1241 1279 -1294 
Q 1081 -1347 831 -1347 
Q 578 -1347 334 -1294 
L 256 -606 
Q 463 -647 628 -647 
Q 934 -647 1081 -467 
Q 1228 -288 1306 -9 
L 44 3319 
z
" transform="scale(0.015625)"/>
      </defs>
      <use xlink:href="#Arial-BoldMT-46"/>
      <use xlink:href="#Arial-BoldMT-72" x="61.083984"/>
      <use xlink:href="#Arial-BoldMT-65" x="100"/>
      <use xlink:href="#Arial-BoldMT-71" x="155.615234"/>
      <use xlink:href="#Arial-BoldMT-75" x="216.699219"/>
      <use xlink:href="#Arial-BoldMT-65" x="277.783203"/>
      <use xlink:href="#Arial-BoldMT-6e" x="333.398438"/>
      <use xlink:href="#Arial-BoldMT-63" x="394.482422"/>
      <use xlink:href="#Arial-BoldMT-79" x="450.097656"/>
     </g>
    </g>
   </g>
   <g id="patch_3">
    <path d="M 64.603636 253.44 
L 81.687273 253.44 
L 81.687273 249.995482 
L 64.603636 249.995482 
z
" clip-path="url(#p0c8f1538b2)" style="fill: #90ee90; fill-opacity: 0.5; stroke: #556b2f; stroke-linejoin: miter"/>
   </g>
   <g id="patch_4">
    <path d="M 81.687273 253.44 
L 98.770909 253.44 
L 98.770909 253.44 
L 81.687273 253.44 
z
" clip-path="url(#p0c8f1538b2)" style="fill: #90ee90; fill-opacity: 0.5; stroke: #556b2f; stroke-linejoin: miter"/>
   </g>
   <g id="patch_5">
    <path d="M 98.770909 253.44 
L 115.854545 253.44 
L 115.854545 253.44 
L 98.770909 253.44 
z
" clip-path="url(#p0c8f1538b2)" style="fill: #90ee90; fill-opacity: 0.5; stroke: #556b2f; stroke-linejoin: miter"/>
   </g>
   <g id="patch_6">
    <path d="M 115.854545 253.44 
L 132.938182 253.44 
L 132.938182 249.995482 
L 115.854545 249.995482 
z
" clip-path="url(#p0c8f1538b2)" style="fill: #90ee90; fill-opacity: 0.5; stroke: #556b2f; stroke-linejoin: miter"/>
   </g>
   <g id="patch_7">
    <path d="M 132.938182 253.44 
L 150.021818 253.44 
L 150.021818 236.217409 
L 132.938182 236.217409 
z
" clip-path="url(#p0c8f1538b2)" style="fill: #90ee90; fill-opacity: 0.5; stroke: #556b2f; stroke-linejoin: miter"/>
   </g>
   <g id="patch_8">
    <path d="M 150.021818 253.44 
L 167.105455 253.44 
L 167.105455 227.606113 
L 150.021818 227.606113 
z
" clip-path="url(#p0c8f1538b2)" style="fill: #90ee90; fill-opacity: 0.5; stroke: #556b2f; stroke-linejoin: miter"/>
   </g>
   <g id="patch_9">
    <path d="M 167.105455 253.44 
L 184.189091 253.44 
L 184.189091 210.383522 
L 167.105455 210.383522 
z
" clip-path="url(#p0c8f1538b2)" style="fill: #90ee90; fill-opacity: 0.5; stroke: #556b2f; stroke-linejoin: miter"/>
   </g>
   <g id="patch_10">
    <path d="M 184.189091 253.44 
L 201.272727 253.44 
L 201.272727 206.939003 
L 184.189091 206.939003 
z
" clip-path="url(#p0c8f1538b2)" style="fill: #90ee90; fill-opacity: 0.5; stroke: #556b2f; stroke-linejoin: miter"/>
   </g>
   <g id="patch_11">
    <path d="M 201.272727 253.44 
L 218.356364 253.44 
L 218.356364 174.21608 
L 201.272727 174.21608 
z
" clip-path="url(#p0c8f1538b2)" style="fill: #90ee90; fill-opacity: 0.5; stroke: #556b2f; stroke-linejoin: miter"/>
   </g>
   <g id="patch_12">
    <path d="M 218.356364 253.44 
L 235.44 253.44 
L 235.44 134.60412 
L 218.356364 134.60412 
z
" clip-path="url(#p0c8f1538b2)" style="fill: #90ee90; fill-opacity: 0.5; stroke: #556b2f; stroke-linejoin: miter"/>
   </g>
   <g id="patch_13">
    <path d="M 235.44 253.44 
L 252.523636 253.44 
L 252.523636 108.770233 
L 235.44 108.770233 
z
" clip-path="url(#p0c8f1538b2)" style="fill: #90ee90; fill-opacity: 0.5; stroke: #556b2f; stroke-linejoin: miter"/>
   </g>
   <g id="patch_14">
    <path d="M 252.523636 253.44 
L 269.607273 253.44 
L 269.607273 62.269236 
L 252.523636 62.269236 
z
" clip-path="url(#p0c8f1538b2)" style="fill: #90ee90; fill-opacity: 0.5; stroke: #556b2f; stroke-linejoin: miter"/>
   </g>
   <g id="patch_15">
    <path d="M 269.607273 253.44 
L 286.690909 253.44 
L 286.690909 31.268571 
L 269.607273 31.268571 
z
" clip-path="url(#p0c8f1538b2)" style="fill: #90ee90; fill-opacity: 0.5; stroke: #556b2f; stroke-linejoin: miter"/>
   </g>
   <g id="patch_16">
    <path d="M 286.690909 253.44 
L 303.774545 253.44 
L 303.774545 39.879867 
L 286.690909 39.879867 
z
" clip-path="url(#p0c8f1538b2)" style="fill: #90ee90; fill-opacity: 0.5; stroke: #556b2f; stroke-linejoin: miter"/>
   </g>
   <g id="patch_17">
    <path d="M 303.774545 253.44 
L 320.858182 253.44 
L 320.858182 39.879867 
L 303.774545 39.879867 
z
" clip-path="url(#p0c8f1538b2)" style="fill: #90ee90; fill-opacity: 0.5; stroke: #556b2f; stroke-linejoin: miter"/>
   </g>
   <g id="patch_18">
    <path d="M 320.858182 253.44 
L 337.941818 253.44 
L 337.941818 86.380864 
L 320.858182 86.380864 
z
" clip-path="url(#p0c8f1538b2)" style="fill: #90ee90; fill-opacity: 0.5; stroke: #556b2f; stroke-linejoin: miter"/>
   </g>
   <g id="patch_19">
    <path d="M 337.941818 253.44 
L 355.025455 253.44 
L 355.025455 158.715748 
L 337.941818 158.715748 
z
" clip-path="url(#p0c8f1538b2)" style="fill: #90ee90; fill-opacity: 0.5; stroke: #556b2f; stroke-linejoin: miter"/>
   </g>
   <g id="patch_20">
    <path d="M 355.025455 253.44 
L 372.109091 253.44 
L 372.109091 174.21608 
L 355.025455 174.21608 
z
" clip-path="url(#p0c8f1538b2)" style="fill: #90ee90; fill-opacity: 0.5; stroke: #556b2f; stroke-linejoin: miter"/>
   </g>
   <g id="patch_21">
    <path d="M 372.109091 253.44 
L 389.192727 253.44 
L 389.192727 217.272558 
L 372.109091 217.272558 
z
" clip-path="url(#p0c8f1538b2)" style="fill: #90ee90; fill-opacity: 0.5; stroke: #556b2f; stroke-linejoin: miter"/>
   </g>
   <g id="patch_22">
    <path d="M 389.192727 253.44 
L 406.276364 253.44 
L 406.276364 231.050631 
L 389.192727 231.050631 
z
" clip-path="url(#p0c8f1538b2)" style="fill: #90ee90; fill-opacity: 0.5; stroke: #556b2f; stroke-linejoin: miter"/>
   </g>
   <g id="line2d_14">
    <path d="M 64.603636 251.835646 
L 69.754481 251.78497 
L 74.905327 251.940827 
L 93.791759 252.830644 
L 98.942604 252.692355 
L 104.093449 252.262777 
L 107.527346 251.795983 
L 110.961243 251.17248 
L 114.395139 250.380438 
L 117.829036 249.407051 
L 121.262933 248.241136 
L 124.69683 246.878286 
L 128.130726 245.327081 
L 133.281571 242.707949 
L 141.866313 237.938921 
L 152.168004 232.048162 
L 157.318849 228.797233 
L 160.752746 226.366635 
L 164.186642 223.680265 
L 167.620539 220.75521 
L 181.356126 208.600607 
L 191.657816 200.295147 
L 193.374765 198.687339 
L 195.091713 196.923415 
L 196.808661 194.972522 
L 198.52561 192.810497 
L 200.242558 190.42176 
L 201.959507 187.800517 
L 205.393403 181.887812 
L 208.8273 175.216372 
L 213.978145 164.337122 
L 222.562887 145.933944 
L 227.713732 135.41305 
L 246.600164 97.635788 
L 262.0527 65.426134 
L 265.486597 58.987136 
L 268.920493 53.220305 
L 270.637442 50.647237 
L 272.35439 48.308028 
L 274.071339 46.219361 
L 275.788287 44.39445 
L 277.505235 42.842474 
L 279.222184 41.567997 
L 280.939132 40.5704 
L 282.65608 39.843391 
L 284.373029 39.374714 
L 286.089977 39.146161 
L 287.806926 39.134014 
L 289.523874 39.310004 
L 291.240822 39.642837 
L 294.674719 40.651492 
L 298.108616 41.936405 
L 301.542513 43.383189 
L 304.976409 45.051093 
L 306.693358 46.038835 
L 308.410306 47.187326 
L 310.127254 48.548402 
L 311.844203 50.176048 
L 313.561151 52.122317 
L 315.2781 54.433284 
L 316.995048 57.145421 
L 318.711996 60.282693 
L 320.428945 63.854609 
L 322.145893 67.855339 
L 323.862841 72.263906 
L 327.296738 82.152702 
L 330.730635 93.112706 
L 341.032325 127.320013 
L 344.466222 137.720418 
L 347.900119 147.235834 
L 351.334016 155.884303 
L 354.767912 163.813381 
L 358.201809 171.230433 
L 363.352654 181.779858 
L 368.503499 191.812841 
L 371.937396 198.107394 
L 375.371293 203.946551 
L 378.80519 209.245648 
L 382.239086 214.000623 
L 385.672983 218.293065 
L 390.823828 224.167199 
L 399.40857 233.399914 
L 404.559415 238.673801 
L 406.276364 240.326912 
L 406.276364 240.326912 
" clip-path="url(#p0c8f1538b2)" style="fill: none; stroke: #8fbc8f; stroke-width: 1.5; stroke-linecap: round"/>
   </g>
   <g id="patch_23">
    <path d="M 47.52 253.44 
L 47.52 20.16 
" style="fill: none; stroke: #ffffff; stroke-width: 0.8; stroke-linejoin: miter; stroke-linecap: square"/>
   </g>
   <g id="patch_24">
    <path d="M 423.36 253.44 
L 423.36 20.16 
" style="fill: none; stroke: #ffffff; stroke-width: 0.8; stroke-linejoin: miter; stroke-linecap: square"/>
   </g>
   <g id="patch_25">
    <path d="M 47.52 253.44 
L 423.36 253.44 
" style="fill: none; stroke: #ffffff; stroke-width: 0.8; stroke-linejoin: miter; stroke-linecap: square"/>
   </g>
   <g id="patch_26">
    <path d="M 47.52 20.16 
L 423.36 20.16 
" style="fill: none; stroke: #ffffff; stroke-width: 0.8; stroke-linejoin: miter; stroke-linecap: square"/>
   </g>
   <g id="text_16">
    <!-- Distribution of SSIM Scores -->
    <g style="fill: #262626" transform="translate(130.10125 14.16) scale(0.16 -0.16)">
     <defs>
      <path id="Arial-BoldMT-44" d="M 463 4581 
L 2153 4581 
Q 2725 4581 3025 4494 
Q 3428 4375 3715 4072 
Q 4003 3769 4153 3330 
Q 4303 2891 4303 2247 
Q 4303 1681 4163 1272 
Q 3991 772 3672 463 
Q 3431 228 3022 97 
Q 2716 0 2203 0 
L 463 0 
L 463 4581 
z
M 1388 3806 
L 1388 772 
L 2078 772 
Q 2466 772 2638 816 
Q 2863 872 3011 1006 
Q 3159 1141 3253 1448 
Q 3347 1756 3347 2288 
Q 3347 2819 3253 3103 
Q 3159 3388 2990 3547 
Q 2822 3706 2563 3763 
Q 2369 3806 1803 3806 
L 1388 3806 
z
" transform="scale(0.015625)"/>
      <path id="Arial-BoldMT-69" d="M 459 3769 
L 459 4581 
L 1338 4581 
L 1338 3769 
L 459 3769 
z
M 459 0 
L 459 3319 
L 1338 3319 
L 1338 0 
L 459 0 
z
" transform="scale(0.015625)"/>
      <path id="Arial-BoldMT-73" d="M 150 947 
L 1031 1081 
Q 1088 825 1259 692 
Q 1431 559 1741 559 
Q 2081 559 2253 684 
Q 2369 772 2369 919 
Q 2369 1019 2306 1084 
Q 2241 1147 2013 1200 
Q 950 1434 666 1628 
Q 272 1897 272 2375 
Q 272 2806 612 3100 
Q 953 3394 1669 3394 
Q 2350 3394 2681 3172 
Q 3013 2950 3138 2516 
L 2309 2363 
Q 2256 2556 2107 2659 
Q 1959 2763 1684 2763 
Q 1338 2763 1188 2666 
Q 1088 2597 1088 2488 
Q 1088 2394 1175 2328 
Q 1294 2241 1995 2081 
Q 2697 1922 2975 1691 
Q 3250 1456 3250 1038 
Q 3250 581 2869 253 
Q 2488 -75 1741 -75 
Q 1063 -75 667 200 
Q 272 475 150 947 
z
" transform="scale(0.015625)"/>
      <path id="Arial-BoldMT-74" d="M 1981 3319 
L 1981 2619 
L 1381 2619 
L 1381 1281 
Q 1381 875 1398 808 
Q 1416 741 1477 697 
Q 1538 653 1625 653 
Q 1747 653 1978 738 
L 2053 56 
Q 1747 -75 1359 -75 
Q 1122 -75 931 4 
Q 741 84 652 211 
Q 563 338 528 553 
Q 500 706 500 1172 
L 500 2619 
L 97 2619 
L 97 3319 
L 500 3319 
L 500 3978 
L 1381 4491 
L 1381 3319 
L 1981 3319 
z
" transform="scale(0.015625)"/>
      <path id="Arial-BoldMT-62" d="M 422 0 
L 422 4581 
L 1300 4581 
L 1300 2931 
Q 1706 3394 2263 3394 
Q 2869 3394 3266 2955 
Q 3663 2516 3663 1694 
Q 3663 844 3258 384 
Q 2853 -75 2275 -75 
Q 1991 -75 1714 67 
Q 1438 209 1238 488 
L 1238 0 
L 422 0 
z
M 1294 1731 
Q 1294 1216 1456 969 
Q 1684 619 2063 619 
Q 2353 619 2558 867 
Q 2763 1116 2763 1650 
Q 2763 2219 2556 2470 
Q 2350 2722 2028 2722 
Q 1713 2722 1503 2476 
Q 1294 2231 1294 1731 
z
" transform="scale(0.015625)"/>
      <path id="Arial-BoldMT-66" d="M 75 3319 
L 563 3319 
L 563 3569 
Q 563 3988 652 4194 
Q 741 4400 980 4529 
Q 1219 4659 1584 4659 
Q 1959 4659 2319 4547 
L 2200 3934 
Q 1991 3984 1797 3984 
Q 1606 3984 1523 3895 
Q 1441 3806 1441 3553 
L 1441 3319 
L 2097 3319 
L 2097 2628 
L 1441 2628 
L 1441 0 
L 563 0 
L 563 2628 
L 75 2628 
L 75 3319 
z
" transform="scale(0.015625)"/>
     </defs>
     <use xlink:href="#Arial-BoldMT-44"/>
     <use xlink:href="#Arial-BoldMT-69" x="72.216797"/>
     <use xlink:href="#Arial-BoldMT-73" x="100"/>
     <use xlink:href="#Arial-BoldMT-74" x="155.615234"/>
     <use xlink:href="#Arial-BoldMT-72" x="188.916016"/>
     <use xlink:href="#Arial-BoldMT-69" x="227.832031"/>
     <use xlink:href="#Arial-BoldMT-62" x="255.615234"/>
     <use xlink:href="#Arial-BoldMT-75" x="316.699219"/>
     <use xlink:href="#Arial-BoldMT-74" x="377.783203"/>
     <use xlink:href="#Arial-BoldMT-69" x="411.083984"/>
     <use xlink:href="#Arial-BoldMT-6f" x="438.867188"/>
     <use xlink:href="#Arial-BoldMT-6e" x="499.951172"/>
     <use xlink:href="#Arial-BoldMT-20" x="561.035156"/>
     <use xlink:href="#Arial-BoldMT-6f" x="588.818359"/>
     <use xlink:href="#Arial-BoldMT-66" x="649.902344"/>
     <use xlink:href="#Arial-BoldMT-20" x="683.203125"/>
     <use xlink:href="#Arial-BoldMT-53" x="710.986328"/>
     <use xlink:href="#Arial-BoldMT-53" x="777.685547"/>
     <use xlink:href="#Arial-BoldMT-49" x="844.384766"/>
     <use xlink:href="#Arial-BoldMT-4d" x="872.167969"/>
     <use xlink:href="#Arial-BoldMT-20" x="955.46875"/>
     <use xlink:href="#Arial-BoldMT-53" x="983.251953"/>
     <use xlink:href="#Arial-BoldMT-63" x="1049.951172"/>
     <use xlink:href="#Arial-BoldMT-6f" x="1105.566406"/>
     <use xlink:href="#Arial-BoldMT-72" x="1166.650391"/>
     <use xlink:href="#Arial-BoldMT-65" x="1205.566406"/>
     <use xlink:href="#Arial-BoldMT-73" x="1261.181641"/>
    </g>
   </g>
  </g>
 </g>
 <defs>
  <clipPath id="p0c8f1538b2">
   <rect x="47.52" y="20.16" width="375.84" height="233.28"/>
  </clipPath>
 </defs>
</svg>
