<?xml version="1.0" encoding="utf-8" standalone="no"?>
<!DOCTYPE svg PUBLIC "-//W3C//DTD SVG 1.1//EN"
  "http://www.w3.org/Graphics/SVG/1.1/DTD/svg11.dtd">
<svg xmlns:xlink="http://www.w3.org/1999/xlink" width="432pt" height="288pt" viewBox="0 0 432 288" xmlns="http://www.w3.org/2000/svg" version="1.1">
 <metadata>
  <rdf:RDF xmlns:dc="http://purl.org/dc/elements/1.1/" xmlns:cc="http://creativecommons.org/ns#" xmlns:rdf="http://www.w3.org/1999/02/22-rdf-syntax-ns#">
   <cc:Work>
    <dc:type rdf:resource="http://purl.org/dc/dcmitype/StillImage"/>
    <dc:date>2024-02-14T17:47:15.039542</dc:date>
    <dc:format>image/svg+xml</dc:format>
    <dc:creator>
     <cc:Agent>
      <dc:title>Matplotlib v3.6.2, https://matplotlib.org/</dc:title>
     </cc:Agent>
    </dc:creator>
   </cc:Work>
  </rdf:RDF>
 </metadata>
 <defs>
  <style type="text/css">*{stroke-linejoin: round; stroke-linecap: butt}</style>
 </defs>
 <g id="figure_1">
  <g id="patch_1">
   <path d="M 0 288 
L 432 288 
L 432 0 
L 0 0 
z
" style="fill: #ffffff"/>
  </g>
  <g id="axes_1">
   <g id="patch_2">
    <path d="M 47.52 253.44 
L 423.36 253.44 
L 423.36 20.16 
L 47.52 20.16 
z
" style="fill: #eaeaf2"/>
   </g>
   <g id="matplotlib.axis_1">
    <g id="xtick_1">
     <g id="line2d_1">
      <path d="M 79.325533 253.44 
L 79.325533 20.16 
" clip-path="url(#p039b21b99e)" style="fill: none; stroke: #ffffff; stroke-width: 0.8; stroke-linecap: round"/>
     </g>
     <g id="text_1">
      <!-- 12 -->
      <g style="fill: #333333" transform="translate(72.652408 269.029375) scale(0.12 -0.12)">
       <defs>
        <path id="Arial-BoldMT-31" d="M 2519 0 
L 1641 0 
L 1641 3309 
Q 1159 2859 506 2644 
L 506 3441 
Q 850 3553 1253 3867 
Q 1656 4181 1806 4600 
L 2519 4600 
L 2519 0 
z
" transform="scale(0.015625)"/>
        <path id="Arial-BoldMT-32" d="M 3238 816 
L 3238 0 
L 159 0 
Q 209 463 459 877 
Q 709 1291 1447 1975 
Q 2041 2528 2175 2725 
Q 2356 2997 2356 3263 
Q 2356 3556 2198 3714 
Q 2041 3872 1763 3872 
Q 1488 3872 1325 3706 
Q 1163 3541 1138 3156 
L 263 3244 
Q 341 3969 753 4284 
Q 1166 4600 1784 4600 
Q 2463 4600 2850 4234 
Q 3238 3869 3238 3325 
Q 3238 3016 3127 2736 
Q 3016 2456 2775 2150 
Q 2616 1947 2200 1565 
Q 1784 1184 1673 1059 
Q 1563 934 1494 816 
L 3238 816 
z
" transform="scale(0.015625)"/>
       </defs>
       <use xlink:href="#Arial-BoldMT-31"/>
       <use xlink:href="#Arial-BoldMT-32" x="55.615234"/>
      </g>
     </g>
    </g>
    <g id="xtick_2">
     <g id="line2d_2">
      <path d="M 133.451617 253.44 
L 133.451617 20.16 
" clip-path="url(#p039b21b99e)" style="fill: none; stroke: #ffffff; stroke-width: 0.8; stroke-linecap: round"/>
     </g>
     <g id="text_2">
      <!-- 14 -->
      <g style="fill: #333333" transform="translate(126.778492 269.029375) scale(0.12 -0.12)">
       <defs>
        <path id="Arial-BoldMT-34" d="M 1994 0 
L 1994 922 
L 119 922 
L 119 1691 
L 2106 4600 
L 2844 4600 
L 2844 1694 
L 3413 1694 
L 3413 922 
L 2844 922 
L 2844 0 
L 1994 0 
z
M 1994 1694 
L 1994 3259 
L 941 1694 
L 1994 1694 
z
" transform="scale(0.015625)"/>
       </defs>
       <use xlink:href="#Arial-BoldMT-31"/>
       <use xlink:href="#Arial-BoldMT-34" x="55.615234"/>
      </g>
     </g>
    </g>
    <g id="xtick_3">
     <g id="line2d_3">
      <path d="M 187.577702 253.44 
L 187.577702 20.16 
" clip-path="url(#p039b21b99e)" style="fill: none; stroke: #ffffff; stroke-width: 0.8; stroke-linecap: round"/>
     </g>
     <g id="text_3">
      <!-- 16 -->
      <g style="fill: #333333" transform="translate(180.904577 269.029375) scale(0.12 -0.12)">
       <defs>
        <path id="Arial-BoldMT-36" d="M 3247 3459 
L 2397 3366 
Q 2366 3628 2234 3753 
Q 2103 3878 1894 3878 
Q 1616 3878 1423 3628 
Q 1231 3378 1181 2588 
Q 1509 2975 1997 2975 
Q 2547 2975 2939 2556 
Q 3331 2138 3331 1475 
Q 3331 772 2918 347 
Q 2506 -78 1859 -78 
Q 1166 -78 719 461 
Q 272 1000 272 2228 
Q 272 3488 737 4044 
Q 1203 4600 1947 4600 
Q 2469 4600 2811 4308 
Q 3153 4016 3247 3459 
z
M 1256 1544 
Q 1256 1116 1453 883 
Q 1650 650 1903 650 
Q 2147 650 2309 840 
Q 2472 1031 2472 1466 
Q 2472 1913 2297 2120 
Q 2122 2328 1859 2328 
Q 1606 2328 1431 2129 
Q 1256 1931 1256 1544 
z
" transform="scale(0.015625)"/>
       </defs>
       <use xlink:href="#Arial-BoldMT-31"/>
       <use xlink:href="#Arial-BoldMT-36" x="55.615234"/>
      </g>
     </g>
    </g>
    <g id="xtick_4">
     <g id="line2d_4">
      <path d="M 241.703786 253.44 
L 241.703786 20.16 
" clip-path="url(#p039b21b99e)" style="fill: none; stroke: #ffffff; stroke-width: 0.8; stroke-linecap: round"/>
     </g>
     <g id="text_4">
      <!-- 18 -->
      <g style="fill: #333333" transform="translate(235.030661 269.029375) scale(0.12 -0.12)">
       <defs>
        <path id="Arial-BoldMT-38" d="M 1025 2472 
Q 684 2616 529 2867 
Q 375 3119 375 3419 
Q 375 3931 733 4265 
Q 1091 4600 1750 4600 
Q 2403 4600 2764 4265 
Q 3125 3931 3125 3419 
Q 3125 3100 2959 2851 
Q 2794 2603 2494 2472 
Q 2875 2319 3073 2025 
Q 3272 1731 3272 1347 
Q 3272 713 2867 316 
Q 2463 -81 1791 -81 
Q 1166 -81 750 247 
Q 259 634 259 1309 
Q 259 1681 443 1992 
Q 628 2303 1025 2472 
z
M 1206 3356 
Q 1206 3094 1354 2947 
Q 1503 2800 1750 2800 
Q 2000 2800 2150 2948 
Q 2300 3097 2300 3359 
Q 2300 3606 2151 3754 
Q 2003 3903 1759 3903 
Q 1506 3903 1356 3753 
Q 1206 3603 1206 3356 
z
M 1125 1394 
Q 1125 1031 1311 828 
Q 1497 625 1775 625 
Q 2047 625 2225 820 
Q 2403 1016 2403 1384 
Q 2403 1706 2222 1901 
Q 2041 2097 1763 2097 
Q 1441 2097 1283 1875 
Q 1125 1653 1125 1394 
z
" transform="scale(0.015625)"/>
       </defs>
       <use xlink:href="#Arial-BoldMT-31"/>
       <use xlink:href="#Arial-BoldMT-38" x="55.615234"/>
      </g>
     </g>
    </g>
    <g id="xtick_5">
     <g id="line2d_5">
      <path d="M 295.829871 253.44 
L 295.829871 20.16 
" clip-path="url(#p039b21b99e)" style="fill: none; stroke: #ffffff; stroke-width: 0.8; stroke-linecap: round"/>
     </g>
     <g id="text_5">
      <!-- 20 -->
      <g style="fill: #333333" transform="translate(289.156746 269.029375) scale(0.12 -0.12)">
       <defs>
        <path id="Arial-BoldMT-30" d="M 1756 4600 
Q 2422 4600 2797 4125 
Q 3244 3563 3244 2259 
Q 3244 959 2794 391 
Q 2422 -78 1756 -78 
Q 1088 -78 678 436 
Q 269 950 269 2269 
Q 269 3563 719 4131 
Q 1091 4600 1756 4600 
z
M 1756 3872 
Q 1597 3872 1472 3770 
Q 1347 3669 1278 3406 
Q 1188 3066 1188 2259 
Q 1188 1453 1269 1151 
Q 1350 850 1473 750 
Q 1597 650 1756 650 
Q 1916 650 2041 751 
Q 2166 853 2234 1116 
Q 2325 1453 2325 2259 
Q 2325 3066 2244 3367 
Q 2163 3669 2039 3770 
Q 1916 3872 1756 3872 
z
" transform="scale(0.015625)"/>
       </defs>
       <use xlink:href="#Arial-BoldMT-32"/>
       <use xlink:href="#Arial-BoldMT-30" x="55.615234"/>
      </g>
     </g>
    </g>
    <g id="xtick_6">
     <g id="line2d_6">
      <path d="M 349.955955 253.44 
L 349.955955 20.16 
" clip-path="url(#p039b21b99e)" style="fill: none; stroke: #ffffff; stroke-width: 0.8; stroke-linecap: round"/>
     </g>
     <g id="text_6">
      <!-- 22 -->
      <g style="fill: #333333" transform="translate(343.28283 269.029375) scale(0.12 -0.12)">
       <use xlink:href="#Arial-BoldMT-32"/>
       <use xlink:href="#Arial-BoldMT-32" x="55.615234"/>
      </g>
     </g>
    </g>
    <g id="xtick_7">
     <g id="line2d_7">
      <path d="M 404.082039 253.44 
L 404.082039 20.16 
" clip-path="url(#p039b21b99e)" style="fill: none; stroke: #ffffff; stroke-width: 0.8; stroke-linecap: round"/>
     </g>
     <g id="text_7">
      <!-- 24 -->
      <g style="fill: #333333" transform="translate(397.408914 269.029375) scale(0.12 -0.12)">
       <use xlink:href="#Arial-BoldMT-32"/>
       <use xlink:href="#Arial-BoldMT-34" x="55.615234"/>
      </g>
     </g>
    </g>
    <g id="text_8">
     <!-- PSNR Score -->
     <g style="fill: #333333" transform="translate(194.591719 285.418437) scale(0.14 -0.14)">
      <defs>
       <path id="Arial-BoldMT-50" d="M 466 0 
L 466 4581 
L 1950 4581 
Q 2794 4581 3050 4513 
Q 3444 4409 3709 4064 
Q 3975 3719 3975 3172 
Q 3975 2750 3822 2462 
Q 3669 2175 3433 2011 
Q 3197 1847 2953 1794 
Q 2622 1728 1994 1728 
L 1391 1728 
L 1391 0 
L 466 0 
z
M 1391 3806 
L 1391 2506 
L 1897 2506 
Q 2444 2506 2628 2578 
Q 2813 2650 2917 2803 
Q 3022 2956 3022 3159 
Q 3022 3409 2875 3571 
Q 2728 3734 2503 3775 
Q 2338 3806 1838 3806 
L 1391 3806 
z
" transform="scale(0.015625)"/>
       <path id="Arial-BoldMT-53" d="M 231 1491 
L 1131 1578 
Q 1213 1125 1461 912 
Q 1709 700 2131 700 
Q 2578 700 2804 889 
Q 3031 1078 3031 1331 
Q 3031 1494 2936 1608 
Q 2841 1722 2603 1806 
Q 2441 1863 1863 2006 
Q 1119 2191 819 2459 
Q 397 2838 397 3381 
Q 397 3731 595 4036 
Q 794 4341 1167 4500 
Q 1541 4659 2069 4659 
Q 2931 4659 3367 4281 
Q 3803 3903 3825 3272 
L 2900 3231 
Q 2841 3584 2645 3739 
Q 2450 3894 2059 3894 
Q 1656 3894 1428 3728 
Q 1281 3622 1281 3444 
Q 1281 3281 1419 3166 
Q 1594 3019 2269 2859 
Q 2944 2700 3267 2529 
Q 3591 2359 3773 2064 
Q 3956 1769 3956 1334 
Q 3956 941 3737 597 
Q 3519 253 3119 86 
Q 2719 -81 2122 -81 
Q 1253 -81 787 320 
Q 322 722 231 1491 
z
" transform="scale(0.015625)"/>
       <path id="Arial-BoldMT-4e" d="M 475 0 
L 475 4581 
L 1375 4581 
L 3250 1522 
L 3250 4581 
L 4109 4581 
L 4109 0 
L 3181 0 
L 1334 2988 
L 1334 0 
L 475 0 
z
" transform="scale(0.015625)"/>
       <path id="Arial-BoldMT-52" d="M 469 0 
L 469 4581 
L 2416 4581 
Q 3150 4581 3483 4457 
Q 3816 4334 4016 4018 
Q 4216 3703 4216 3297 
Q 4216 2781 3912 2445 
Q 3609 2109 3006 2022 
Q 3306 1847 3501 1637 
Q 3697 1428 4028 894 
L 4588 0 
L 3481 0 
L 2813 997 
Q 2456 1531 2325 1670 
Q 2194 1809 2047 1861 
Q 1900 1913 1581 1913 
L 1394 1913 
L 1394 0 
L 469 0 
z
M 1394 2644 
L 2078 2644 
Q 2744 2644 2909 2700 
Q 3075 2756 3169 2893 
Q 3263 3031 3263 3238 
Q 3263 3469 3139 3611 
Q 3016 3753 2791 3791 
Q 2678 3806 2116 3806 
L 1394 3806 
L 1394 2644 
z
" transform="scale(0.015625)"/>
       <path id="Arial-BoldMT-20" transform="scale(0.015625)"/>
       <path id="Arial-BoldMT-63" d="M 3353 2338 
L 2488 2181 
Q 2444 2441 2289 2572 
Q 2134 2703 1888 2703 
Q 1559 2703 1364 2476 
Q 1169 2250 1169 1719 
Q 1169 1128 1367 884 
Q 1566 641 1900 641 
Q 2150 641 2309 783 
Q 2469 925 2534 1272 
L 3397 1125 
Q 3263 531 2881 228 
Q 2500 -75 1859 -75 
Q 1131 -75 698 384 
Q 266 844 266 1656 
Q 266 2478 700 2936 
Q 1134 3394 1875 3394 
Q 2481 3394 2839 3133 
Q 3197 2872 3353 2338 
z
" transform="scale(0.015625)"/>
       <path id="Arial-BoldMT-6f" d="M 256 1706 
Q 256 2144 472 2553 
Q 688 2963 1083 3178 
Q 1478 3394 1966 3394 
Q 2719 3394 3200 2905 
Q 3681 2416 3681 1669 
Q 3681 916 3195 420 
Q 2709 -75 1972 -75 
Q 1516 -75 1102 131 
Q 688 338 472 736 
Q 256 1134 256 1706 
z
M 1156 1659 
Q 1156 1166 1390 903 
Q 1625 641 1969 641 
Q 2313 641 2545 903 
Q 2778 1166 2778 1666 
Q 2778 2153 2545 2415 
Q 2313 2678 1969 2678 
Q 1625 2678 1390 2415 
Q 1156 2153 1156 1659 
z
" transform="scale(0.015625)"/>
       <path id="Arial-BoldMT-72" d="M 1300 0 
L 422 0 
L 422 3319 
L 1238 3319 
L 1238 2847 
Q 1447 3181 1614 3287 
Q 1781 3394 1994 3394 
Q 2294 3394 2572 3228 
L 2300 2463 
Q 2078 2606 1888 2606 
Q 1703 2606 1575 2504 
Q 1447 2403 1373 2137 
Q 1300 1872 1300 1025 
L 1300 0 
z
" transform="scale(0.015625)"/>
       <path id="Arial-BoldMT-65" d="M 2381 1056 
L 3256 909 
Q 3088 428 2723 176 
Q 2359 -75 1813 -75 
Q 947 -75 531 491 
Q 203 944 203 1634 
Q 203 2459 634 2926 
Q 1066 3394 1725 3394 
Q 2466 3394 2894 2905 
Q 3322 2416 3303 1406 
L 1103 1406 
Q 1113 1016 1316 798 
Q 1519 581 1822 581 
Q 2028 581 2168 693 
Q 2309 806 2381 1056 
z
M 2431 1944 
Q 2422 2325 2234 2523 
Q 2047 2722 1778 2722 
Q 1491 2722 1303 2513 
Q 1116 2303 1119 1944 
L 2431 1944 
z
" transform="scale(0.015625)"/>
      </defs>
      <use xlink:href="#Arial-BoldMT-50"/>
      <use xlink:href="#Arial-BoldMT-53" x="66.699219"/>
      <use xlink:href="#Arial-BoldMT-4e" x="133.398438"/>
      <use xlink:href="#Arial-BoldMT-52" x="205.615234"/>
      <use xlink:href="#Arial-BoldMT-20" x="277.832031"/>
      <use xlink:href="#Arial-BoldMT-53" x="305.615234"/>
      <use xlink:href="#Arial-BoldMT-63" x="372.314453"/>
      <use xlink:href="#Arial-BoldMT-6f" x="427.929688"/>
      <use xlink:href="#Arial-BoldMT-72" x="489.013672"/>
      <use xlink:href="#Arial-BoldMT-65" x="527.929688"/>
     </g>
    </g>
   </g>
   <g id="matplotlib.axis_2">
    <g id="ytick_1">
     <g id="line2d_8">
      <path d="M 47.52 253.44 
L 423.36 253.44 
" clip-path="url(#p039b21b99e)" style="fill: none; stroke: #ffffff; stroke-width: 0.8; stroke-linecap: round"/>
     </g>
     <g id="text_9">
      <!-- 0 -->
      <g style="fill: #333333" transform="translate(33.846875 257.734688) scale(0.12 -0.12)">
       <use xlink:href="#Arial-BoldMT-30"/>
      </g>
     </g>
    </g>
    <g id="ytick_2">
     <g id="line2d_9">
      <path d="M 47.52 214.462556 
L 423.36 214.462556 
" clip-path="url(#p039b21b99e)" style="fill: none; stroke: #ffffff; stroke-width: 0.8; stroke-linecap: round"/>
     </g>
     <g id="text_10">
      <!-- 20 -->
      <g style="fill: #333333" transform="translate(27.17375 218.757244) scale(0.12 -0.12)">
       <use xlink:href="#Arial-BoldMT-32"/>
       <use xlink:href="#Arial-BoldMT-30" x="55.615234"/>
      </g>
     </g>
    </g>
    <g id="ytick_3">
     <g id="line2d_10">
      <path d="M 47.52 175.485113 
L 423.36 175.485113 
" clip-path="url(#p039b21b99e)" style="fill: none; stroke: #ffffff; stroke-width: 0.8; stroke-linecap: round"/>
     </g>
     <g id="text_11">
      <!-- 40 -->
      <g style="fill: #333333" transform="translate(27.17375 179.7798) scale(0.12 -0.12)">
       <use xlink:href="#Arial-BoldMT-34"/>
       <use xlink:href="#Arial-BoldMT-30" x="55.615234"/>
      </g>
     </g>
    </g>
    <g id="ytick_4">
     <g id="line2d_11">
      <path d="M 47.52 136.507669 
L 423.36 136.507669 
" clip-path="url(#p039b21b99e)" style="fill: none; stroke: #ffffff; stroke-width: 0.8; stroke-linecap: round"/>
     </g>
     <g id="text_12">
      <!-- 60 -->
      <g style="fill: #333333" transform="translate(27.17375 140.802357) scale(0.12 -0.12)">
       <use xlink:href="#Arial-BoldMT-36"/>
       <use xlink:href="#Arial-BoldMT-30" x="55.615234"/>
      </g>
     </g>
    </g>
    <g id="ytick_5">
     <g id="line2d_12">
      <path d="M 47.52 97.530226 
L 423.36 97.530226 
" clip-path="url(#p039b21b99e)" style="fill: none; stroke: #ffffff; stroke-width: 0.8; stroke-linecap: round"/>
     </g>
     <g id="text_13">
      <!-- 80 -->
      <g style="fill: #333333" transform="translate(27.17375 101.824913) scale(0.12 -0.12)">
       <use xlink:href="#Arial-BoldMT-38"/>
       <use xlink:href="#Arial-BoldMT-30" x="55.615234"/>
      </g>
     </g>
    </g>
    <g id="ytick_6">
     <g id="line2d_13">
      <path d="M 47.52 58.552782 
L 423.36 58.552782 
" clip-path="url(#p039b21b99e)" style="fill: none; stroke: #ffffff; stroke-width: 0.8; stroke-linecap: round"/>
     </g>
     <g id="text_14">
      <!-- 100 -->
      <g style="fill: #333333" transform="translate(20.500625 62.847469) scale(0.12 -0.12)">
       <use xlink:href="#Arial-BoldMT-31"/>
       <use xlink:href="#Arial-BoldMT-30" x="55.615234"/>
       <use xlink:href="#Arial-BoldMT-30" x="111.230469"/>
      </g>
     </g>
    </g>
    <g id="text_15">
     <!-- Frequency -->
     <g style="fill: #333333" transform="translate(13.554063 172.197031) rotate(-90) scale(0.14 -0.14)">
      <defs>
       <path id="Arial-BoldMT-46" d="M 472 0 
L 472 4581 
L 3613 4581 
L 3613 3806 
L 1397 3806 
L 1397 2722 
L 3309 2722 
L 3309 1947 
L 1397 1947 
L 1397 0 
L 472 0 
z
" transform="scale(0.015625)"/>
       <path id="Arial-BoldMT-71" d="M 2628 -1263 
L 2628 406 
Q 2456 184 2200 54 
Q 1944 -75 1647 -75 
Q 1081 -75 716 350 
Q 284 847 284 1697 
Q 284 2497 689 2945 
Q 1094 3394 1694 3394 
Q 2025 3394 2267 3253 
Q 2509 3113 2697 2828 
L 2697 3319 
L 3506 3319 
L 3506 -1263 
L 2628 -1263 
z
M 2656 1700 
Q 2656 2209 2448 2457 
Q 2241 2706 1928 2706 
Q 1609 2706 1395 2453 
Q 1181 2200 1181 1650 
Q 1181 1103 1387 861 
Q 1594 619 1897 619 
Q 2200 619 2428 891 
Q 2656 1163 2656 1700 
z
" transform="scale(0.015625)"/>
       <path id="Arial-BoldMT-75" d="M 2644 0 
L 2644 497 
Q 2463 231 2167 78 
Q 1872 -75 1544 -75 
Q 1209 -75 943 72 
Q 678 219 559 484 
Q 441 750 441 1219 
L 441 3319 
L 1319 3319 
L 1319 1794 
Q 1319 1094 1367 936 
Q 1416 778 1544 686 
Q 1672 594 1869 594 
Q 2094 594 2272 717 
Q 2450 841 2515 1023 
Q 2581 1206 2581 1919 
L 2581 3319 
L 3459 3319 
L 3459 0 
L 2644 0 
z
" transform="scale(0.015625)"/>
       <path id="Arial-BoldMT-6e" d="M 3478 0 
L 2600 0 
L 2600 1694 
Q 2600 2231 2544 2389 
Q 2488 2547 2361 2634 
Q 2234 2722 2056 2722 
Q 1828 2722 1647 2597 
Q 1466 2472 1398 2265 
Q 1331 2059 1331 1503 
L 1331 0 
L 453 0 
L 453 3319 
L 1269 3319 
L 1269 2831 
Q 1703 3394 2363 3394 
Q 2653 3394 2893 3289 
Q 3134 3184 3257 3021 
Q 3381 2859 3429 2653 
Q 3478 2447 3478 2063 
L 3478 0 
z
" transform="scale(0.015625)"/>
       <path id="Arial-BoldMT-79" d="M 44 3319 
L 978 3319 
L 1772 963 
L 2547 3319 
L 3456 3319 
L 2284 125 
L 2075 -453 
Q 1959 -744 1854 -897 
Q 1750 -1050 1614 -1145 
Q 1478 -1241 1279 -1294 
Q 1081 -1347 831 -1347 
Q 578 -1347 334 -1294 
L 256 -606 
Q 463 -647 628 -647 
Q 934 -647 1081 -467 
Q 1228 -288 1306 -9 
L 44 3319 
z
" transform="scale(0.015625)"/>
      </defs>
      <use xlink:href="#Arial-BoldMT-46"/>
      <use xlink:href="#Arial-BoldMT-72" x="61.083984"/>
      <use xlink:href="#Arial-BoldMT-65" x="100"/>
      <use xlink:href="#Arial-BoldMT-71" x="155.615234"/>
      <use xlink:href="#Arial-BoldMT-75" x="216.699219"/>
      <use xlink:href="#Arial-BoldMT-65" x="277.783203"/>
      <use xlink:href="#Arial-BoldMT-6e" x="333.398438"/>
      <use xlink:href="#Arial-BoldMT-63" x="394.482422"/>
      <use xlink:href="#Arial-BoldMT-79" x="450.097656"/>
     </g>
    </g>
   </g>
   <g id="patch_3">
    <path d="M 64.603636 253.44 
L 75.992727 253.44 
L 75.992727 251.491128 
L 64.603636 251.491128 
z
" clip-path="url(#p039b21b99e)" style="fill: #87ceeb; fill-opacity: 0.5; stroke: #4682b4; stroke-linejoin: miter"/>
   </g>
   <g id="patch_4">
    <path d="M 75.992727 253.44 
L 87.381818 253.44 
L 87.381818 253.44 
L 75.992727 253.44 
z
" clip-path="url(#p039b21b99e)" style="fill: #87ceeb; fill-opacity: 0.5; stroke: #4682b4; stroke-linejoin: miter"/>
   </g>
   <g id="patch_5">
    <path d="M 87.381818 253.44 
L 98.770909 253.44 
L 98.770909 251.491128 
L 87.381818 251.491128 
z
" clip-path="url(#p039b21b99e)" style="fill: #87ceeb; fill-opacity: 0.5; stroke: #4682b4; stroke-linejoin: miter"/>
   </g>
   <g id="patch_6">
    <path d="M 98.770909 253.44 
L 110.16 253.44 
L 110.16 249.542256 
L 98.770909 249.542256 
z
" clip-path="url(#p039b21b99e)" style="fill: #87ceeb; fill-opacity: 0.5; stroke: #4682b4; stroke-linejoin: miter"/>
   </g>
   <g id="patch_7">
    <path d="M 110.16 253.44 
L 121.549091 253.44 
L 121.549091 251.491128 
L 110.16 251.491128 
z
" clip-path="url(#p039b21b99e)" style="fill: #87ceeb; fill-opacity: 0.5; stroke: #4682b4; stroke-linejoin: miter"/>
   </g>
   <g id="patch_8">
    <path d="M 121.549091 253.44 
L 132.938182 253.44 
L 132.938182 243.695639 
L 121.549091 243.695639 
z
" clip-path="url(#p039b21b99e)" style="fill: #87ceeb; fill-opacity: 0.5; stroke: #4682b4; stroke-linejoin: miter"/>
   </g>
   <g id="patch_9">
    <path d="M 132.938182 253.44 
L 144.327273 253.44 
L 144.327273 235.90015 
L 132.938182 235.90015 
z
" clip-path="url(#p039b21b99e)" style="fill: #87ceeb; fill-opacity: 0.5; stroke: #4682b4; stroke-linejoin: miter"/>
   </g>
   <g id="patch_10">
    <path d="M 144.327273 253.44 
L 155.716364 253.44 
L 155.716364 233.951278 
L 144.327273 233.951278 
z
" clip-path="url(#p039b21b99e)" style="fill: #87ceeb; fill-opacity: 0.5; stroke: #4682b4; stroke-linejoin: miter"/>
   </g>
   <g id="patch_11">
    <path d="M 155.716364 253.44 
L 167.105455 253.44 
L 167.105455 208.61594 
L 155.716364 208.61594 
z
" clip-path="url(#p039b21b99e)" style="fill: #87ceeb; fill-opacity: 0.5; stroke: #4682b4; stroke-linejoin: miter"/>
   </g>
   <g id="patch_12">
    <path d="M 167.105455 253.44 
L 178.494545 253.44 
L 178.494545 187.178346 
L 167.105455 187.178346 
z
" clip-path="url(#p039b21b99e)" style="fill: #87ceeb; fill-opacity: 0.5; stroke: #4682b4; stroke-linejoin: miter"/>
   </g>
   <g id="patch_13">
    <path d="M 178.494545 253.44 
L 189.883636 253.44 
L 189.883636 167.689624 
L 178.494545 167.689624 
z
" clip-path="url(#p039b21b99e)" style="fill: #87ceeb; fill-opacity: 0.5; stroke: #4682b4; stroke-linejoin: miter"/>
   </g>
   <g id="patch_14">
    <path d="M 189.883636 253.44 
L 201.272727 253.44 
L 201.272727 113.121203 
L 189.883636 113.121203 
z
" clip-path="url(#p039b21b99e)" style="fill: #87ceeb; fill-opacity: 0.5; stroke: #4682b4; stroke-linejoin: miter"/>
   </g>
   <g id="patch_15">
    <path d="M 201.272727 253.44 
L 212.661818 253.44 
L 212.661818 107.274586 
L 201.272727 107.274586 
z
" clip-path="url(#p039b21b99e)" style="fill: #87ceeb; fill-opacity: 0.5; stroke: #4682b4; stroke-linejoin: miter"/>
   </g>
   <g id="patch_16">
    <path d="M 212.661818 253.44 
L 224.050909 253.44 
L 224.050909 33.217444 
L 212.661818 33.217444 
z
" clip-path="url(#p039b21b99e)" style="fill: #87ceeb; fill-opacity: 0.5; stroke: #4682b4; stroke-linejoin: miter"/>
   </g>
   <g id="patch_17">
    <path d="M 224.050909 253.44 
L 235.44 253.44 
L 235.44 31.268571 
L 224.050909 31.268571 
z
" clip-path="url(#p039b21b99e)" style="fill: #87ceeb; fill-opacity: 0.5; stroke: #4682b4; stroke-linejoin: miter"/>
   </g>
   <g id="patch_18">
    <path d="M 235.44 253.44 
L 246.829091 253.44 
L 246.829091 52.706165 
L 235.44 52.706165 
z
" clip-path="url(#p039b21b99e)" style="fill: #87ceeb; fill-opacity: 0.5; stroke: #4682b4; stroke-linejoin: miter"/>
   </g>
   <g id="patch_19">
    <path d="M 246.829091 253.44 
L 258.218182 253.44 
L 258.218182 79.990376 
L 246.829091 79.990376 
z
" clip-path="url(#p039b21b99e)" style="fill: #87ceeb; fill-opacity: 0.5; stroke: #4682b4; stroke-linejoin: miter"/>
   </g>
   <g id="patch_20">
    <path d="M 258.218182 253.44 
L 269.607273 253.44 
L 269.607273 105.325714 
L 258.218182 105.325714 
z
" clip-path="url(#p039b21b99e)" style="fill: #87ceeb; fill-opacity: 0.5; stroke: #4682b4; stroke-linejoin: miter"/>
   </g>
   <g id="patch_21">
    <path d="M 269.607273 253.44 
L 280.996364 253.44 
L 280.996364 142.354286 
L 269.607273 142.354286 
z
" clip-path="url(#p039b21b99e)" style="fill: #87ceeb; fill-opacity: 0.5; stroke: #4682b4; stroke-linejoin: miter"/>
   </g>
   <g id="patch_22">
    <path d="M 280.996364 253.44 
L 292.385455 253.44 
L 292.385455 181.331729 
L 280.996364 181.331729 
z
" clip-path="url(#p039b21b99e)" style="fill: #87ceeb; fill-opacity: 0.5; stroke: #4682b4; stroke-linejoin: miter"/>
   </g>
   <g id="patch_23">
    <path d="M 292.385455 253.44 
L 303.774545 253.44 
L 303.774545 179.382857 
L 292.385455 179.382857 
z
" clip-path="url(#p039b21b99e)" style="fill: #87ceeb; fill-opacity: 0.5; stroke: #4682b4; stroke-linejoin: miter"/>
   </g>
   <g id="patch_24">
    <path d="M 303.774545 253.44 
L 315.163636 253.44 
L 315.163636 220.309173 
L 303.774545 220.309173 
z
" clip-path="url(#p039b21b99e)" style="fill: #87ceeb; fill-opacity: 0.5; stroke: #4682b4; stroke-linejoin: miter"/>
   </g>
   <g id="patch_25">
    <path d="M 315.163636 253.44 
L 326.552727 253.44 
L 326.552727 214.462556 
L 315.163636 214.462556 
z
" clip-path="url(#p039b21b99e)" style="fill: #87ceeb; fill-opacity: 0.5; stroke: #4682b4; stroke-linejoin: miter"/>
   </g>
   <g id="patch_26">
    <path d="M 326.552727 253.44 
L 337.941818 253.44 
L 337.941818 241.746767 
L 326.552727 241.746767 
z
" clip-path="url(#p039b21b99e)" style="fill: #87ceeb; fill-opacity: 0.5; stroke: #4682b4; stroke-linejoin: miter"/>
   </g>
   <g id="patch_27">
    <path d="M 337.941818 253.44 
L 349.330909 253.44 
L 349.330909 224.206917 
L 337.941818 224.206917 
z
" clip-path="url(#p039b21b99e)" style="fill: #87ceeb; fill-opacity: 0.5; stroke: #4682b4; stroke-linejoin: miter"/>
   </g>
   <g id="patch_28">
    <path d="M 349.330909 253.44 
L 360.72 253.44 
L 360.72 232.002406 
L 349.330909 232.002406 
z
" clip-path="url(#p039b21b99e)" style="fill: #87ceeb; fill-opacity: 0.5; stroke: #4682b4; stroke-linejoin: miter"/>
   </g>
   <g id="patch_29">
    <path d="M 360.72 253.44 
L 372.109091 253.44 
L 372.109091 235.90015 
L 360.72 235.90015 
z
" clip-path="url(#p039b21b99e)" style="fill: #87ceeb; fill-opacity: 0.5; stroke: #4682b4; stroke-linejoin: miter"/>
   </g>
   <g id="patch_30">
    <path d="M 372.109091 253.44 
L 383.498182 253.44 
L 383.498182 230.053534 
L 372.109091 230.053534 
z
" clip-path="url(#p039b21b99e)" style="fill: #87ceeb; fill-opacity: 0.5; stroke: #4682b4; stroke-linejoin: miter"/>
   </g>
   <g id="patch_31">
    <path d="M 383.498182 253.44 
L 394.887273 253.44 
L 394.887273 247.593383 
L 383.498182 247.593383 
z
" clip-path="url(#p039b21b99e)" style="fill: #87ceeb; fill-opacity: 0.5; stroke: #4682b4; stroke-linejoin: miter"/>
   </g>
   <g id="patch_32">
    <path d="M 394.887273 253.44 
L 406.276364 253.44 
L 406.276364 247.593383 
L 394.887273 247.593383 
z
" clip-path="url(#p039b21b99e)" style="fill: #87ceeb; fill-opacity: 0.5; stroke: #4682b4; stroke-linejoin: miter"/>
   </g>
   <g id="line2d_14">
    <path d="M 64.603636 252.681109 
L 81.77312 252.498716 
L 88.640914 252.066541 
L 97.225656 251.221616 
L 105.810397 250.191375 
L 110.961243 249.350762 
L 114.395139 248.58132 
L 117.829036 247.57449 
L 121.262933 246.293574 
L 124.69683 244.734982 
L 128.130726 242.924928 
L 131.564623 240.901212 
L 134.99852 238.686232 
L 138.432417 236.262726 
L 141.866313 233.563964 
L 145.30021 230.484485 
L 148.734107 226.908039 
L 152.168004 222.741058 
L 155.6019 217.937187 
L 159.035797 212.502939 
L 162.469694 206.483748 
L 165.903591 199.93842 
L 169.337487 192.914249 
L 172.771384 185.433813 
L 176.205281 177.498898 
L 179.639178 169.108784 
L 183.073074 160.28175 
L 188.22392 146.3296 
L 193.374765 131.699078 
L 198.52561 116.466006 
L 203.676455 100.605581 
L 212.261197 73.984145 
L 215.695094 64.443636 
L 217.412042 60.206779 
L 219.12899 56.42659 
L 220.845939 53.168878 
L 222.562887 50.486845 
L 224.279836 48.418359 
L 225.996784 46.984468 
L 227.713732 46.189165 
L 229.430681 46.020344 
L 231.147629 46.451711 
L 232.864577 47.445382 
L 234.581526 48.954827 
L 236.298474 50.927886 
L 238.015423 53.309572 
L 239.732371 56.044515 
L 241.449319 59.078916 
L 244.883216 65.847183 
L 248.317113 73.261147 
L 253.467958 85.022476 
L 262.0527 105.264495 
L 268.920493 122.014009 
L 275.788287 139.465658 
L 282.65608 156.892315 
L 286.089977 165.176846 
L 289.523874 172.99719 
L 292.957771 180.298749 
L 296.391667 187.078456 
L 299.825564 193.351693 
L 303.259461 199.124503 
L 306.693358 204.387723 
L 310.127254 209.131925 
L 313.561151 213.365914 
L 316.995048 217.11911 
L 320.428945 220.421661 
L 323.862841 223.275764 
L 327.296738 225.642203 
L 329.013687 226.622815 
L 330.730635 227.458603 
L 332.447583 228.145688 
L 334.164532 228.684801 
L 335.88148 229.082343 
L 339.315377 229.508475 
L 342.749274 229.587114 
L 349.617067 229.543789 
L 353.050964 229.770881 
L 356.484861 230.277099 
L 359.918757 231.058994 
L 363.352654 232.076752 
L 366.786551 233.286874 
L 371.937396 235.402287 
L 377.088241 237.825961 
L 392.540777 245.508818 
L 395.974673 246.940962 
L 399.40857 248.209691 
L 404.559415 249.813727 
L 406.276364 250.272218 
L 406.276364 250.272218 
" clip-path="url(#p039b21b99e)" style="fill: none; stroke: #6495ed; stroke-width: 1.5; stroke-linecap: round"/>
   </g>
   <g id="patch_33">
    <path d="M 47.52 253.44 
L 47.52 20.16 
" style="fill: none; stroke: #ffffff; stroke-width: 0.8; stroke-linejoin: miter; stroke-linecap: square"/>
   </g>
   <g id="patch_34">
    <path d="M 423.36 253.44 
L 423.36 20.16 
" style="fill: none; stroke: #ffffff; stroke-width: 0.8; stroke-linejoin: miter; stroke-linecap: square"/>
   </g>
   <g id="patch_35">
    <path d="M 47.52 253.44 
L 423.36 253.44 
" style="fill: none; stroke: #ffffff; stroke-width: 0.8; stroke-linejoin: miter; stroke-linecap: square"/>
   </g>
   <g id="patch_36">
    <path d="M 47.52 20.16 
L 423.36 20.16 
" style="fill: none; stroke: #ffffff; stroke-width: 0.8; stroke-linejoin: miter; stroke-linecap: square"/>
   </g>
   <g id="text_16">
    <!-- Distribution of PSNR Scores -->
    <g style="fill: #262626" transform="translate(127.4325 14.16) scale(0.16 -0.16)">
     <defs>
      <path id="Arial-BoldMT-44" d="M 463 4581 
L 2153 4581 
Q 2725 4581 3025 4494 
Q 3428 4375 3715 4072 
Q 4003 3769 4153 3330 
Q 4303 2891 4303 2247 
Q 4303 1681 4163 1272 
Q 3991 772 3672 463 
Q 3431 228 3022 97 
Q 2716 0 2203 0 
L 463 0 
L 463 4581 
z
M 1388 3806 
L 1388 772 
L 2078 772 
Q 2466 772 2638 816 
Q 2863 872 3011 1006 
Q 3159 1141 3253 1448 
Q 3347 1756 3347 2288 
Q 3347 2819 3253 3103 
Q 3159 3388 2990 3547 
Q 2822 3706 2563 3763 
Q 2369 3806 1803 3806 
L 1388 3806 
z
" transform="scale(0.015625)"/>
      <path id="Arial-BoldMT-69" d="M 459 3769 
L 459 4581 
L 1338 4581 
L 1338 3769 
L 459 3769 
z
M 459 0 
L 459 3319 
L 1338 3319 
L 1338 0 
L 459 0 
z
" transform="scale(0.015625)"/>
      <path id="Arial-BoldMT-73" d="M 150 947 
L 1031 1081 
Q 1088 825 1259 692 
Q 1431 559 1741 559 
Q 2081 559 2253 684 
Q 2369 772 2369 919 
Q 2369 1019 2306 1084 
Q 2241 1147 2013 1200 
Q 950 1434 666 1628 
Q 272 1897 272 2375 
Q 272 2806 612 3100 
Q 953 3394 1669 3394 
Q 2350 3394 2681 3172 
Q 3013 2950 3138 2516 
L 2309 2363 
Q 2256 2556 2107 2659 
Q 1959 2763 1684 2763 
Q 1338 2763 1188 2666 
Q 1088 2597 1088 2488 
Q 1088 2394 1175 2328 
Q 1294 2241 1995 2081 
Q 2697 1922 2975 1691 
Q 3250 1456 3250 1038 
Q 3250 581 2869 253 
Q 2488 -75 1741 -75 
Q 1063 -75 667 200 
Q 272 475 150 947 
z
" transform="scale(0.015625)"/>
      <path id="Arial-BoldMT-74" d="M 1981 3319 
L 1981 2619 
L 1381 2619 
L 1381 1281 
Q 1381 875 1398 808 
Q 1416 741 1477 697 
Q 1538 653 1625 653 
Q 1747 653 1978 738 
L 2053 56 
Q 1747 -75 1359 -75 
Q 1122 -75 931 4 
Q 741 84 652 211 
Q 563 338 528 553 
Q 500 706 500 1172 
L 500 2619 
L 97 2619 
L 97 3319 
L 500 3319 
L 500 3978 
L 1381 4491 
L 1381 3319 
L 1981 3319 
z
" transform="scale(0.015625)"/>
      <path id="Arial-BoldMT-62" d="M 422 0 
L 422 4581 
L 1300 4581 
L 1300 2931 
Q 1706 3394 2263 3394 
Q 2869 3394 3266 2955 
Q 3663 2516 3663 1694 
Q 3663 844 3258 384 
Q 2853 -75 2275 -75 
Q 1991 -75 1714 67 
Q 1438 209 1238 488 
L 1238 0 
L 422 0 
z
M 1294 1731 
Q 1294 1216 1456 969 
Q 1684 619 2063 619 
Q 2353 619 2558 867 
Q 2763 1116 2763 1650 
Q 2763 2219 2556 2470 
Q 2350 2722 2028 2722 
Q 1713 2722 1503 2476 
Q 1294 2231 1294 1731 
z
" transform="scale(0.015625)"/>
      <path id="Arial-BoldMT-66" d="M 75 3319 
L 563 3319 
L 563 3569 
Q 563 3988 652 4194 
Q 741 4400 980 4529 
Q 1219 4659 1584 4659 
Q 1959 4659 2319 4547 
L 2200 3934 
Q 1991 3984 1797 3984 
Q 1606 3984 1523 3895 
Q 1441 3806 1441 3553 
L 1441 3319 
L 2097 3319 
L 2097 2628 
L 1441 2628 
L 1441 0 
L 563 0 
L 563 2628 
L 75 2628 
L 75 3319 
z
" transform="scale(0.015625)"/>
     </defs>
     <use xlink:href="#Arial-BoldMT-44"/>
     <use xlink:href="#Arial-BoldMT-69" x="72.216797"/>
     <use xlink:href="#Arial-BoldMT-73" x="100"/>
     <use xlink:href="#Arial-BoldMT-74" x="155.615234"/>
     <use xlink:href="#Arial-BoldMT-72" x="188.916016"/>
     <use xlink:href="#Arial-BoldMT-69" x="227.832031"/>
     <use xlink:href="#Arial-BoldMT-62" x="255.615234"/>
     <use xlink:href="#Arial-BoldMT-75" x="316.699219"/>
     <use xlink:href="#Arial-BoldMT-74" x="377.783203"/>
     <use xlink:href="#Arial-BoldMT-69" x="411.083984"/>
     <use xlink:href="#Arial-BoldMT-6f" x="438.867188"/>
     <use xlink:href="#Arial-BoldMT-6e" x="499.951172"/>
     <use xlink:href="#Arial-BoldMT-20" x="561.035156"/>
     <use xlink:href="#Arial-BoldMT-6f" x="588.818359"/>
     <use xlink:href="#Arial-BoldMT-66" x="649.902344"/>
     <use xlink:href="#Arial-BoldMT-20" x="683.203125"/>
     <use xlink:href="#Arial-BoldMT-50" x="710.986328"/>
     <use xlink:href="#Arial-BoldMT-53" x="777.685547"/>
     <use xlink:href="#Arial-BoldMT-4e" x="844.384766"/>
     <use xlink:href="#Arial-BoldMT-52" x="916.601562"/>
     <use xlink:href="#Arial-BoldMT-20" x="988.818359"/>
     <use xlink:href="#Arial-BoldMT-53" x="1016.601562"/>
     <use xlink:href="#Arial-BoldMT-63" x="1083.300781"/>
     <use xlink:href="#Arial-BoldMT-6f" x="1138.916016"/>
     <use xlink:href="#Arial-BoldMT-72" x="1200"/>
     <use xlink:href="#Arial-BoldMT-65" x="1238.916016"/>
     <use xlink:href="#Arial-BoldMT-73" x="1294.53125"/>
    </g>
   </g>
  </g>
 </g>
 <defs>
  <clipPath id="p039b21b99e">
   <rect x="47.52" y="20.16" width="375.84" height="233.28"/>
  </clipPath>
 </defs>
</svg>
